# xmcd
#
# Track frame offsets:
#	150
#	11773
#	24747
#	37839
#	61115
#	72835
#	81485
#	97465
#	109635
#	121787
#	132777
#	149089
#	165921
#	175396
#	184137
#	199573
#	216288
#	228047
#
# Disc length: 3181 seconds
#
# Revision: 0
# Processed by: cddbd v1.5.2PL0 Copyright (c) Steve Scherf et al.
# Submitted via: dBpowerAMP V4.0
#
DISCID=f80c6b12
DTITLE=Various Artist - Zither Stückl'n
DYEAR=1900
DGENRE=Instrumental
TTITLE0=Grantenbrocker - Boarische Almmusi
TTITLE1=Boarischer in C - Hirschberg Zithermusi
TTITLE2=C-Dur Landler - Hornsteiner Zithermsi
TTITLE3=Habt acht - Kerschbam Zithermusi
TTITLE4=S'Mittenwalder G'läut - Wetterstoa Musikanten
TTITLE5=Isarwinkler Landler - Messerer Neumaier
TTITLE6=Dorfmusi Marsch - Kreuther Trio
TTITLE7=Am Wiesenbachle - Oberlandler Musikanten
TTITLE8=Partenkirchner Gebirgsschützen Marsch - Hornsteiner Ziethermusi
TTITLE9=Rosstag Boarischer - Eckbank Zithermusi
TTITLE10=A-Dur Landler - Hirschberg Zithermusi
TTITLE11=Siglmahd Landler - Boarische Almmusi
TTITLE12=Weisen - Kreuther Trio
TTITLE13=Arzbergler Boarischer - Oberlanler Musikanten
TTITLE14=Kerschbam Landler - Kerschbam Zithermusi
TTITLE15=Landlerweisen - Messerer Neumaier
TTITLE16=Franz Schwaighofer Marsch - Wetterstoa Musikanten
TTITLE17=Her über d'Alm - Schwenk Etschberger
EXTD=
EXTT0=
EXTT1=
EXTT2=
EXTT3=
EXTT4=
EXTT5=
EXTT6=
EXTT7=
EXTT8=
EXTT9=
EXTT10=
EXTT11=
EXTT12=
EXTT13=
EXTT14=
EXTT15=
EXTT16=
EXTT17=
PLAYORDER=
